<?xml version="1.0" encoding="utf-8"?>
<!-- Generator: Adobe Illustrator 24.0.3, SVG Export Plug-In . SVG Version: 6.00 Build 0)  -->
<svg version="1.1" id="Layer_1" xmlns="http://www.w3.org/2000/svg" xmlns:xlink="http://www.w3.org/1999/xlink" x="0px" y="0px"
	 viewBox="0 0 881 207" style="enable-background:new 0 0 881 207;" xml:space="preserve">
<style type="text/css">
	.st0{fill:#DA3838;}
</style>
<g>
	<path class="st0" d="M122.4,203.5L112,165.1l-47.3,0.1l-10.9,38.4H0L64,3.7l53.3-0.1L178,203.4L122.4,203.5z M93.1,89.1
		c-2-8.6-3.2-17.2-3.8-26.7c-0.8,9.8-3.1,20.6-5.4,30.4l-8,32.7h25.8L93.1,89.1z"/>
	<path class="st0" d="M271.5,206.7c-24.7,0-47-7.4-65.4-27.5c-15.8-17.5-23-43.6-23-71.9c0-24.9,4-43.9,13.7-62
		C213.7,14.1,242.6,0,277.6,0c20.4,0,41.9,5.7,51.1,14.6L307,52.5c-8.9-6.9-18.9-10.6-29.8-10.6c-8.9,0-17.2,2.3-22.4,7.8
		c-9.7,10-12.9,20.4-12.9,43.9c0,33,1.5,48.7,9.8,58.5c6.6,7.7,14.9,12.6,25.5,12.6c12.9,0,23.2-3.2,34.4-13.2l22.1,35
		C321.1,198.1,300.8,206.7,271.5,206.7z"/>
	<path class="st0" d="M496.3,45.6l-46.5,0.1l0.2,157.4l-51.9,0.1L398,45.7l-46.5,0.1V3.4l150.8-0.2L496.3,45.6z"/>
	<path class="st0" d="M623,202.9L602,147c-7.8-20.6-12.4-23.2-23.5-23.2l0.1,79.1l-51.3,0.1L527,3.1L595.8,3
		c58.8-0.1,77.7,23.7,77.8,57c0,34.4-18,51.9-41.5,56c6.9,2,15.2,11.2,20.1,21.5c6.6,13.5,23.6,50.4,30.2,65.3L623,202.9z
		 M592.7,45.2h-14.3v40.7H593c17.5,0,23.5-8.3,23.5-21.8C616.5,49.8,608.7,45.2,592.7,45.2z"/>
	<path class="st0" d="M818.8,202.7l-10.4-38.4l-47.3,0.1l-10.9,38.4l-53.9,0.1L760.3,3l53.3-0.1l60.7,199.8H818.8z M789.4,88.3
		c-2-8.6-3.2-17.2-3.8-26.7c-0.8,9.8-3.1,20.7-5.4,30.4l-8,32.7H798L789.4,88.3z"/>
</g>
</svg>
