<?xml version="1.0" encoding="UTF-8" standalone="no"?>
<svg
   xmlns:dc="http://purl.org/dc/elements/1.1/"
   xmlns:cc="http://creativecommons.org/ns#"
   xmlns:rdf="http://www.w3.org/1999/02/22-rdf-syntax-ns#"
   xmlns:svg="http://www.w3.org/2000/svg"
   xmlns="http://www.w3.org/2000/svg"
   xmlns:sodipodi="http://sodipodi.sourceforge.net/DTD/sodipodi-0.dtd"
   xmlns:inkscape="http://www.inkscape.org/namespaces/inkscape"
   version="1.0"
   width="340.29083"
   height="379.66412"
   id="svg2046"
   sodipodi:docname="Chevron (Flat).svg"
   inkscape:version="1.0.2 (e86c870879, 2021-01-15, custom)">
  <metadata
     id="metadata71">
    <rdf:RDF>
      <cc:Work
         rdf:about="">
        <dc:format>image/svg+xml</dc:format>
        <dc:type
           rdf:resource="http://purl.org/dc/dcmitype/StillImage" />
        <dc:title></dc:title>
      </cc:Work>
    </rdf:RDF>
  </metadata>
  <sodipodi:namedview
     pagecolor="#ffffff"
     bordercolor="#666666"
     borderopacity="1"
     objecttolerance="10"
     gridtolerance="10"
     guidetolerance="10"
     inkscape:pageopacity="0"
     inkscape:pageshadow="2"
     inkscape:window-width="1440"
     inkscape:window-height="837"
     id="namedview69"
     showgrid="false"
     inkscape:zoom="1.5953835"
     inkscape:cx="170.14542"
     inkscape:cy="189.83206"
     inkscape:window-x="-8"
     inkscape:window-y="-8"
     inkscape:window-maximized="1"
     inkscape:current-layer="svg2046" />
  <defs
     id="defs2048">
    <clipPath
       id="XMLID_12_">
      <polygon
         points="38.636,347.548 201.339,401.794 364.058,347.531 364.058,239.063 201.308,293.281 "
         id="use65" />
    </clipPath>
    <clipPath
       id="XMLID_11_">
      <polygon
         points="201.339,293.298 38.618,347.568 38.604,239.063 "
         id="use49" />
    </clipPath>
    <clipPath
       id="XMLID_10_">
      <polygon
         points="364.05,221.492 364.05,113.027 201.354,167.252 38.649,221.492 201.354,275.724 "
         id="use33" />
    </clipPath>
    <clipPath
       id="XMLID_9_">
      <polygon
         points="201.354,167.252 38.608,221.484 38.608,113.014 "
         id="use17" />
    </clipPath>
  </defs>
  <g
     transform="translate(-39.7899,-39.8076)"
     id="g66">
    <g
       transform="scale(1.043997)"
       id="g64">
      <g
         fill="#0056a2"
         id="g54">
        <title
           id="title38">Chevron</title>
        <path
           d="m 85.154,100.157 c -2.467,1.204 -7.449,2.687 -14.838,2.687 -20.461,0 -32.203,-14.073 -32.203,-32.028 0,-21.375 14.962,-32.686 33.562,-32.686 7.211,0 11.021,1.38 13.475,2.684 l -2.273,12.783 c -2.732,-1.21 -5.632,-2.312 -10.64,-2.312 -8.858,0 -18.254,5.268 -18.254,19.295 0,12.548 7.492,19.185 18.328,19.185 4.292,0 7.205,-0.842 10.567,-2.385 z"
           id="path40" />
        <path
           d="m 119.129,53.982 c -5.512,0 -10.846,2.499 -13.562,6.513 H 105.4 V 38.354 l -13.865,4.8 v 57.765 H 105.4 V 73.936 c 0,-3.896 2.533,-8.087 7.391,-8.087 5.197,0 7.199,4.091 7.199,10.042 v 25.029 h 13.877 V 73.977 c 0,-13.754 -5.899,-19.995 -14.738,-19.995 z"
           id="path42" />
        <path
           d="m 154.783,82.696 c 0.51,5.851 5.363,8.96 12.862,9.027 4.519,0.035 9.773,-1.279 13.273,-3.341 l 2.092,10.791 c -5.268,2.646 -11.286,3.671 -17.412,3.671 -16.504,0 -25.35,-9.926 -25.35,-25.133 0,-14.71 9.512,-24.202 23.766,-24.202 14.69,0 21.275,10.816 21.275,24.368 0,1.428 -0.176,3.754 -0.334,4.819 h -30.172 m 16.658,-9.867 c 0,-3.398 -1.658,-9.34 -8.077,-9.34 -5.628,0 -8.282,4.845 -8.676,9.34 z"
           id="path44" />
        <polygon
           points="218.475,100.919 201.587,100.919 186.267,55.439 201.564,55.439 209.887,87.61 210.167,87.61 218.491,55.439 233.794,55.439 "
           id="polygon46" />
        <path
           d="m 237.725,70.396 c 0,-6.691 -0.21,-11.056 -0.495,-14.958 h 13.062 l 0.396,8.454 h 0.351 c 2.286,-6.691 6.673,-9.233 11.185,-9.489 2.145,-0.125 3.306,0.027 4.634,0.284 v 13.298 c -1.271,-0.249 -3.793,-0.542 -5.566,-0.379 -5.336,0.491 -8.565,4.372 -9.471,8.84 -0.182,0.926 -0.276,1.954 -0.276,3.157 v 21.315 H 237.73 V 70.396 Z"
           id="path48" />
        <path
           d="m 315.584,78.176 c 0,14.906 -8.981,24.667 -23.534,24.667 -14.556,0 -23.543,-9.761 -23.543,-24.667 0,-14.908 8.987,-24.668 23.543,-24.668 14.553,0 23.534,9.761 23.534,24.668 m -14.375,0 c 0,-7.401 -2.544,-13.843 -9.159,-13.843 -6.624,0 -9.155,6.441 -9.155,13.843 0,7.408 2.531,13.84 9.155,13.84 6.617,0 9.159,-6.432 9.159,-13.84 z"
           id="path50" />
        <path
           d="m 321.75,69.939 c 0,-5.676 -0.208,-10.522 -0.501,-14.5 h 13.062 l 0.299,6.363 h 0.28 c 1.809,-2.959 6.596,-7.82 14.065,-7.82 9.141,0 15.108,6.241 15.108,19.629 V 100.92 H 350.21 V 75.701 c 0,-5.852 -2.008,-9.853 -7.021,-9.853 -3.844,0 -6.231,2.703 -7.117,5.294 -0.328,0.949 -0.462,2.238 -0.462,3.54 v 26.237 h -13.86 z"
           id="path52" />
      </g>
      <polygon
         points="38.608,113.014 201.354,167.252 38.608,221.484 "
         fill="url(#ub)"
         id="polygon56"
         style="fill:#1570af;fill-opacity:1" />
      <polygon
         points="364.05,221.492 364.05,113.027 201.354,167.252 38.649,221.492 201.354,275.724 "
         fill="url(#lb)"
         id="polygon58"
         style="fill:#2fa1d3;fill-opacity:1" />
      <polygon
         points="38.604,239.063 201.339,293.298 38.618,347.568 "
         fill="url(#ur)"
         id="polygon60"
         style="fill:#9d1a36;fill-opacity:1" />
      <polygon
         points="38.636,347.548 201.339,401.794 364.058,347.531 364.058,239.063 201.308,293.281 "
         fill="url(#lr)"
         id="polygon62"
         style="fill:#e6192f;fill-opacity:1" />
    </g>
  </g>
</svg>
