<?xml version="1.0" encoding="utf-8"?>
<!-- Generator: Adobe Illustrator 19.2.1, SVG Export Plug-In . SVG Version: 6.00 Build 0)  -->
<svg version="1.1" id="layer" xmlns="http://www.w3.org/2000/svg" xmlns:xlink="http://www.w3.org/1999/xlink" x="0px" y="0px"
	 viewBox="0 0 652 652" style="enable-background:new 0 0 652 652;" xml:space="preserve">
<g>
	<path d="M43.8,314.8c0.2-0.4,0.4-0.7,0.4-1.1c0.1-0.6-0.2-1.3-0.8-2c-1.4-1.8-4.3-3.1-6.3-2.9c-3.2,0.3-6.1,3-6.6,6.1
		c-0.5,3.1,1.7,5.4,4.9,5.2C38.1,319.9,42.4,317.1,43.8,314.8"/>
</g>
<g>
	<path d="M75.4,310.6c0.2-1.8-1.9-3.5-6.5-5.2c-14-5-22.3-17.6-25-36.7c0,0,0-0.1,0-0.2c-0.1-0.1-0.1-0.1-0.1-0.1
		c-0.7-0.6-1.5-1.2-2.4-0.5c-1.8,1.5-0.7,8.2,3.7,26.9c0,0,1.7,7.4,1.7,7.4c0.9,4.2,1.2,7.5,0.7,10.8c-0.5,3.3-1.7,6.8-3.9,11.4
		l-4.1,8.2c-10.9,21.9-14.5,30-13,31.5c0.7,0.7,1.9-0.2,2.8-1.1c0,0,0.1-0.1,0.2-0.1c0-0.1,0.1-0.2,0.1-0.2c2.9-7.1,6.1-13.4,9.6-19
		c7.8-12.4,17.1-21.3,28.2-26.7c4.1-2,6.6-3.7,7.6-5.3C75.2,311.4,75.4,311,75.4,310.6"/>
</g>
<g>
	<path d="M172.1,272.5c0,0,0.1,0,0.3,0c0.1-0.1,0.2-0.1,0.2-0.1c1.1-0.5,2.3-1.1,2.8-1.9c0.2-0.3,0.3-0.6,0.2-0.9
		c-0.2-2.7-10-3-36.2-2.6c0,0-9.4,0.1-9.4,0.1c-5.1,0-8.6-0.5-11.5-1.8c-2.9-1.2-5.3-3.3-8-6.6c0,0-4.7-5.9-4.7-5.9
		c-11.7-14.8-16-19.6-18.2-18.2c-0.3,0.2-0.5,0.4-0.6,0.6c-0.4,0.7-0.4,1.6-0.4,2.4c0,0,0,0.1,0,0.2c0.1,0.1,0.1,0.1,0.1,0.1
		c12.8,13,17.5,28.9,13.3,46.9c-1.4,5.8-1.3,8.9,0.1,9.7c1.5,0.8,4.5-0.8,9.4-5C125.5,276.4,146,270.5,172.1,272.5"/>
</g>
<g>
	<path d="M130,246.4c-2.8-1.1-6.9,0.9-9.1,4.5c-2.1,3.4-2.5,10-0.5,10.8c2,0.8,8.5-3.2,10.6-6.7C133.3,251.3,132.8,247.5,130,246.4"
		/>
</g>
<g>
	<path d="M94,369.8l6.5-8.1c3.7-4.5,6.8-7.4,10.2-9.4c3.4-2,7.3-3.3,12.9-4.3l10.1-1.7c28.1-4.5,38.6-6.7,39.1-9.8
		c0.2-1.4-1.5-2.1-3-2.5c0,0-0.1,0-0.3-0.1c-0.1,0-0.3,0.1-0.3,0.1c-28,7.1-49,4.4-63.2-7.2c-4.4-3.6-7.2-4.7-8.9-3.6
		c-0.3,0.2-0.7,0.6-0.9,1c-1,1.6-1.4,4.7-1.3,9.5c0.4,13.4-3.7,27.2-12.3,40.9c-3.9,6.2-8.6,12.3-14.2,18.2c0,0-0.1,0.1-0.2,0.2
		c0,0.1-0.1,0.2-0.1,0.2c-0.4,1.4-0.8,3.1,0.2,3.7C70.5,398.3,76.9,391.1,94,369.8"/>
</g>
<g>
	<path d="M111.3,368.8c1,2.1,2.7,3.7,4.6,4.3c1.6,0.5,3.3,0.3,4.7-0.5c1.4-0.8,2.6-2.3,3.1-4c0.7-2.2,0.6-4.7-0.4-6.8
		c-1.8-3.8-8.2-7.3-10.5-6c-0.3,0.2-0.6,0.5-0.9,1c-0.3,0.4-0.5,1-0.7,1.6C110.2,361.5,110.2,366.3,111.3,368.8"/>
</g>
<g>
	<path d="M232.3,298.4c0.2-0.2,0.4-0.5,0.4-0.7c0-0.3-0.2-0.5-0.4-0.7c-1.9-1.2-42.9-26.1-77.4-17.1c-0.3,0.1-0.5,0.3-0.7,0.5
		c-0.1,0.1-0.1,0.2-0.1,0.4c0,0.4,0.2,0.7,0.7,0.7c22.8,1.6,45.1,13.9,51.6,17.8l1.1,0.6l-1.1,0.8c-6.7,5-29.8,21.6-53.7,27.6
		c-0.4,0.1-0.8,0.5-0.8,0.9c0,0.4,0.3,0.8,0.8,0.8C188.2,333.2,230.5,299.9,232.3,298.4"/>
</g>
<g>
	<path d="M87.9,250.7c0.3-0.2,0.4-0.6,0.3-0.9c-6.7-21.8-35.5-26.7-36.7-26.9c-0.1,0-0.3,0-0.5,0.2c-0.2,0.1-0.3,0.3-0.3,0.5
		c-0.4,1.4-10.4,35,1.2,52.4c0.2,0.2,0.5,0.3,0.8,0.1c0.3-0.2,0.5-0.6,0.4-0.9c-2.8-15.8,1.7-34.7,3.1-40l0.2-0.9l0.7,0.2
		c4.4,1,19.9,5.4,29.9,16.3C87.2,250.9,87.6,250.9,87.9,250.7"/>
</g>
<g>
	<path d="M73.2,376.2c0.2-0.4,0.1-0.8-0.2-1.1c-0.3-0.2-0.7-0.1-1,0.2c-14.6,16.3-34.5,25.5-40.1,27.9l-0.9,0.4l0-1.1
		c0.3-6.8,1.8-29.7,10-49c0.1-0.4,0.1-0.8-0.2-0.9c-0.2-0.2-0.6,0-0.8,0.2c-18.5,23.2-19.6,65.2-19.7,67.1c0,0.2,0.1,0.5,0.2,0.6
		c0.1,0.1,0.3,0.2,0.5,0.1C22.6,420,59.2,406.5,73.2,376.2"/>
</g>
<g>
	<path d="M319.9,351.4h11.5v10.8h0.3c3.5-7.7,12.1-12.3,21.1-12.3c16.6,0,24.1,10.9,24.1,29v40.2h-11.9V384
		c0-15.8-3.3-23.4-13.6-24.1c-13.5,0-19.5,11.4-19.5,27.8v31.3h-11.9"/>
</g>
<g>
	<path d="M431.7,356.2c5.9-3.8,13-6.4,21.2-6.4c18.4,0,25.8,9.6,25.8,28v28c0,7.7,0.3,11.3,0.5,13.3h-11.1v-8.8h-0.2
		c-2.8,4.1-9.1,10.4-20,10.4c-13.9,0-23.6-6.4-23.6-21.1c0-17,17.6-22.3,29.9-22.3c4.7,0,7.9,0,12.6,0.3c0-11.7-4-17.7-15.9-17.7
		c-6.7,0-13.9,2.6-18.7,6.9L431.7,356.2 M466.9,386.8c-2.5,0-5-0.3-7.6-0.3c-6.4,0-22.3,1.1-22.3,13c0,7.2,6.6,11,12,11
		c11.7,0,17.9-7.7,17.9-17.8"/>
</g>
<g>
	<path d="M525.4,362.3c-1.7-0.4-3.4-0.5-4.9-0.5c-11.2,0-18.5,10.6-18.5,27.6v29.7h-12.5v-67.2h11.7v11h0.2
		c3.3-7,10.5-12.1,17.7-12.1c2.7,0,4.5,0.2,6.2,0.5"/>
</g>
<g>
	<path d="M587.7,349.8c19.5,0,32.7,14.9,32.7,35.4c0,19.4-13.4,35.4-32.7,35.4c-19.5,0-32.8-16-32.8-35.4
		C554.9,364.7,568,349.8,587.7,349.8 M587.7,410.6c13.8,0,20.1-13.3,20.1-25.3c0-12.9-7.5-25.3-20.1-25.3
		c-12.8,0-20.2,12.5-20.2,25.3C567.6,397.4,573.7,410.6,587.7,410.6"/>
</g>
<g>
	<path d="M419.6,351.4h-17.4v-19.6l-12.4,4v15.6l-10.2,10.2h10.2V401c0,13.5,7.9,19.6,20.8,19.6c3.7,0,7.3-0.9,10.1-1.7v-10.5
		c-1.8,1.1-4.5,2.1-7.9,2.1c-5.7,0-10.5-4.3-10.5-12.1v-37h17.4"/>
</g>
<g>
	<rect x="533.1" y="351.4" width="12.5" height="67.7"/>
</g>
<g>
	<path d="M539.3,342.4c4.2,0,7.6-3.4,7.6-7.6s-3.4-7.6-7.6-7.6c-4.2,0-7.7,3.4-7.7,7.6S535.1,342.4,539.3,342.4"/>
</g>
<g>
	<path d="M268.1,324.9c26.8,0,42.4,20.4,42.4,47.9c0,28.1-15.5,47.9-42.4,47.9c-26.8,0-42.3-19.8-42.3-47.9
		C225.8,345.3,241.4,324.9,268.1,324.9 M268.1,409c20.3,0,29-17.8,29-36.3c0-18.8-9.6-36.3-29-36.2c-19.4-0.1-29,17.4-29,36.2
		C239.2,391.2,247.9,409,268.1,409"/>
</g>
</svg>
