<svg
    xmlns="http://www.w3.org/2000/svg"
    width="20"
    height="20"
    viewBox="0 0 25 25"
    fill="none">
    <path
        d="M12.5 2.83301C15.0013 5.57136 16.4228 9.12504 16.5 12.833C16.4228 16.541 15.0013 20.0947 12.5 22.833M12.5 2.83301C9.99872 5.57136 8.57725 9.12504 8.5 12.833C8.57725 16.541 9.99872 20.0947 12.5 22.833M12.5 2.83301C6.97715 2.83301 2.5 7.31016 2.5 12.833C2.5 18.3559 6.97715 22.833 12.5 22.833M12.5 2.83301C18.0228 2.83301 22.5 7.31016 22.5 12.833C22.5 18.3559 18.0228 22.833 12.5 22.833M3.00002 9.83301H22M3 15.833H22"
        stroke="var(--appointment_widgets-light-text-color)"
        stroke-width="2"
        stroke-linecap="round"
        stroke-linejoin="round"></path>
</svg>
